<svg xmlns="http://www.w3.org/2000/svg" viewBox="0 0 512 512" enable-background="new 0 0 512 512"><g fill="#3E721D"><path d="M501.717 62.033c35.286 89.055-21.195 302.792-154.764 390.594-133.538 87.803-300.61 52.663-340.435-94.966-24.6-91.178 41.123-158.036 174.676-245.824 133.54-87.802 285.738-137.621 320.523-49.804"/><path d="M289.551 358.678c-96.145 67.006-225.321 75.908-272.222 8.578-46.916-67.299 6.161-185.391 102.336-252.397 96.13-66.991 323.544-144.388 370.446-77.072 46.914 67.329-104.429 253.887-200.56 320.891"/></g><path d="M277.905 366.751c-84.854 59.148-198.716 45.648-240.105-13.767s6.987-164.639 91.842-223.758c84.84-59.121 298.591-136.546 340.023-77.146 41.359 59.399-71.118 238.409-191.76 314.671" fill="#A6D388"/><path d="M253.637 327.66c-66.416 46.282-146.494 46.09-178.878-.398-32.427-46.503-4.864-121.674 61.552-167.971s233.398-106.684 265.81-60.195c32.442 46.502-82.039 182.282-148.484 228.564" fill="#C6E5B3"/><path d="M150.362 159.071c51.293-34.372 108.806-22.035 144.417 14.666 21.107 21.77-12.971 79.327-64.249 113.699-51.264 34.343-114.525 25.971-121.453 10.775-21.21-46.533-9.979-104.768 41.285-139.14" fill="#662113"/><path d="M178.501 168.182c22.256-14.931 50.32-12.071 62.701 6.353 12.337 18.439 4.333 45.5-17.938 60.432-22.256 14.872-50.335 12.042-62.687-6.382-12.38-18.454-4.333-45.487 17.924-60.403" fill="#7C3225"/></svg>