<svg xmlns="http://www.w3.org/2000/svg" viewBox="0 0 511.996 511.996" enable-background="new 0 0 511.996 511.996"><path d="M329.313 348.453l-81.107-81.107-81.121-81.121s6.654 163.558-163.544 206.101c0 0 15.107 36.37 49.211 70.474 34.09 34.104 70.46 49.196 70.46 49.196 42.557-170.197 206.101-163.543 206.101-163.543" fill="#77B255"/><g fill="#5C913B"><path d="M195.016 235.43c-10.632 53.188-74.467 138.288-74.467 138.288l127.655-127.655c42.543-42.543-53.188-10.633-53.188-10.633"/><path d="M375.849 331.166s-159.551 10.632-255.297 85.099c117.01-117.01 170.198-127.641 170.198-127.641l85.099 42.542z"/></g><path d="M433.772 405.043c9.754.658 19.714-2.603 27.172-10.062 13.718-13.703 13.718-35.932 0-49.634-1.243-1.243-2.632-2.252-4.007-3.275 6.011-1.477 11.729-4.445 16.423-9.125 4.549-4.549 7.429-10.062 8.965-15.852 5.792-1.536 11.305-4.431 15.852-8.979 13.703-13.703 13.703-35.932 0-49.635 13.703-13.703 13.703-35.932 0-49.635-5.148-5.148-11.495-8.365-18.149-9.652 6.288-13.06 4.168-29.16-6.669-39.998-4.695-4.695-10.412-7.649-16.423-9.125 1.374-1.024 2.764-2.032 4.007-3.275 13.718-13.718 13.718-35.932 0-49.65-10.837-10.822-26.924-12.958-39.998-6.669-1.272-6.654-4.489-13.001-9.637-18.149-7.458-7.458-17.418-10.705-27.172-10.047.643-9.754-2.603-19.728-10.062-27.186-13.703-13.703-35.932-13.703-49.634 0-10.837-10.822-26.938-12.958-39.998-6.669-1.287-6.654-4.504-13.001-9.652-18.149-13.703-13.703-35.932-13.703-49.635 0-5.148 5.148-8.365 11.495-9.637 18.149-13.074-6.288-29.176-4.153-39.998 6.669-4.695 4.695-7.663 10.412-9.14 16.423-1.024-1.374-2.032-2.764-3.275-4.007-13.703-13.703-35.932-13.703-49.635 0-10.838 10.833-12.973 26.933-6.684 39.993-6.639 1.287-12.987 4.489-18.134 9.637-13.718 13.718-13.718 35.932 0 49.65 4.68 4.695 10.412 7.649 16.408 9.125-1.374 1.024-2.764 2.032-4.007 3.275-13.703 13.718-13.703 35.932 0 49.65 5.148 5.148 11.495 8.351 18.149 9.637-6.288 13.06-4.153 29.16 6.669 39.998 10.837 10.837 26.938 12.972 39.998 6.669 1.287 6.654 4.505 13.001 9.652 18.149 4.695 4.695 10.412 7.663 16.408 9.14-1.374 1.024-2.75 2.018-4.007 3.275-13.703 13.703-13.703 35.932 0 49.635 10.837 10.837 26.938 12.972 39.998 6.669 1.287 6.654 4.504 13.001 9.652 18.149 9.286 9.302 22.477 12.138 34.294 8.819.936 1.228 1.813 2.471 2.925 3.598 7.458 7.458 17.432 10.705 27.186 10.047-.658 9.754 2.588 19.728 10.047 27.186 13.703 13.703 35.932 13.703 49.65 0 1.243-1.258 2.252-2.632 3.261-4.007 1.491 5.996 4.445 11.715 9.14 16.408 13.703 13.718 35.932 13.718 49.634 0 7.459-7.456 10.721-17.415 10.063-27.17" fill="#3E721D"/><g fill="#5C913B"><path d="M168.42 91.828c-8.819 8.819-23.106 8.819-31.91 0-8.819-8.819-8.819-23.106 0-31.91 8.804-8.819 23.091-8.819 31.91 0 8.818 8.804 8.818 23.092 0 31.91"/><path d="M232.247 91.828c-8.819 8.819-23.106 8.819-31.91 0-8.819-8.819-8.819-23.106 0-31.91 8.804-8.819 23.091-8.819 31.91 0 8.818 8.804 8.818 23.092 0 31.91"/><path d="M274.8 49.28c-8.819 8.819-23.106 8.819-31.91 0-8.819-8.819-8.819-23.106 0-31.91 8.804-8.819 23.091-8.819 31.91 0 8.819 8.803 8.819 23.092 0 31.91"/><path d="M327.981 81.191c-8.819 8.819-23.106 8.819-31.91 0-8.819-8.819-8.819-23.106 0-31.91 8.804-8.819 23.091-8.819 31.91 0 8.819 8.804 8.819 23.092 0 31.91"/><path d="M370.531 81.191c-8.819 8.819-23.106 8.819-31.91 0-8.819-8.819-8.819-23.106 0-31.91 8.804-8.819 23.091-8.819 31.91 0 8.819 8.804 8.819 23.092 0 31.91"/><path d="M381.169 113.102c-8.819 8.819-23.106 8.819-31.91 0-8.819-8.819-8.819-23.106 0-31.91 8.804-8.819 23.091-8.819 31.91 0 8.819 8.804 8.819 23.091 0 31.91"/><path d="M413.08 123.739c-8.819 8.819-23.106 8.819-31.91 0-8.819-8.819-8.819-23.106 0-31.91 8.804-8.819 23.091-8.819 31.91 0 8.818 8.804 8.818 23.092 0 31.91"/><path d="M455.628 145.011c-8.819 8.819-23.106 8.819-31.91 0-8.819-8.819-8.819-23.106 0-31.91 8.804-8.819 23.091-8.819 31.91 0 8.819 8.804 8.819 23.091 0 31.91"/><path d="M444.992 176.925c-8.819 8.819-23.106 8.819-31.91 0-8.819-8.819-8.819-23.106 0-31.91 8.804-8.819 23.091-8.819 31.91 0 8.818 8.804 8.818 23.092 0 31.91"/><path d="M476.901 230.112c-8.819 8.819-23.106 8.819-31.91 0-8.819-8.819-8.819-23.106 0-31.91 8.804-8.819 23.091-8.819 31.91 0 8.819 8.804 8.819 23.092 0 31.91"/><path d="M487.539 283.297c-8.819 8.819-23.106 8.819-31.91 0-8.819-8.819-8.819-23.106 0-31.91 8.804-8.819 23.091-8.819 31.91 0 8.818 8.804 8.818 23.093 0 31.91"/><path d="M402.444 176.925c-8.819 8.819-23.106 8.819-31.91 0-8.819-8.819-8.819-23.106 0-31.91 8.804-8.819 23.091-8.819 31.91 0 8.819 8.804 8.819 23.092 0 31.91"/><path d="M359.894 134.372c-8.819 8.819-23.106 8.819-31.91 0-8.819-8.819-8.819-23.106 0-31.91 8.804-8.819 23.091-8.819 31.91 0 8.819 8.804 8.819 23.091 0 31.91"/><path d="M306.708 102.466c-8.819 8.819-23.106 8.819-31.91 0-8.819-8.819-8.819-23.106 0-31.91 8.804-8.819 23.091-8.819 31.91 0 8.819 8.803 8.819 23.091 0 31.91"/><path d="M242.885 123.739c-8.819 8.819-23.106 8.819-31.91 0-8.819-8.819-8.819-23.106 0-31.91 8.804-8.819 23.091-8.819 31.91 0 8.818 8.804 8.818 23.092 0 31.91"/><path d="M264.161 102.466c-8.819 8.819-23.106 8.819-31.91 0-8.819-8.819-8.819-23.106 0-31.91 8.804-8.819 23.091-8.819 31.91 0 8.818 8.803 8.818 23.091 0 31.91"/><path d="M200.336 145.011c-8.819 8.819-23.106 8.819-31.91 0-8.819-8.819-8.819-23.106 0-31.91 8.804-8.819 23.091-8.819 31.91 0 8.817 8.804 8.817 23.091 0 31.91"/><path d="M306.708 166.288c-8.819 8.819-23.106 8.819-31.91 0-8.819-8.819-8.819-23.106 0-31.91 8.804-8.819 23.091-8.819 31.91 0 8.819 8.804 8.819 23.091 0 31.91"/><path d="M381.169 240.752c-8.819 8.819-23.106 8.819-31.91 0-8.819-8.819-8.819-23.106 0-31.91 8.804-8.819 23.091-8.819 31.91 0 8.819 8.804 8.819 23.091 0 31.91"/><path d="M402.444 304.573c-8.819 8.819-23.106 8.819-31.91 0-8.819-8.819-8.819-23.106 0-31.91 8.804-8.819 23.091-8.819 31.91 0 8.819 8.803 8.819 23.091 0 31.91"/></g></svg>