<svg xmlns="http://www.w3.org/2000/svg" viewBox="0 0 511.998 511.998" enable-background="new 0 0 511.998 511.998"><path d="M194.078 146.625l-84.571-84.569c12.243-14.717 11.634-36.54-2.171-50.345-14.631-14.631-38.349-14.631-52.993 0-8.987 8.987-12.388 21.403-10.347 33.023-11.634-2.041-24.037 1.375-33.023 10.362-14.631 14.631-14.631 38.364 0 52.993 13.805 13.805 35.628 14.399 50.345 2.156l84.569 84.569 48.191-48.189z" fill="#FFD983"/><path d="M468.118 468.871c24.095-24.095 85.004-127.477.666-211.801-58.738-58.724-106.045-55.367-194.147-77.204-36.134-12.04-83.238-55.454-95.278-67.508-12.055 12.055-7.843 56.061-7.843 56.061s-52.473 4.254-64.513 16.295c12.04 12.055 68 64.976 77.783 89.823 26.353 83.571 23.342 126.059 82.067 184.798 96.377 96.364 177.185 33.616 201.265 9.536" fill="#C1694F"/></svg>