<svg xmlns="http://www.w3.org/2000/svg" viewBox="0 0 512 512" enable-background="new 0 0 512 512"><g transform="matrix(1.25 0 0 -1.25 0 45)"><g fill="#FFD983"><path d="M204.8-84.471c-108.424 0-204.8-41.695-204.8-108.423 0-50.043 48.188-91.738 120.471-91.738 41.61 0 85.667 25.118 117.182 25.118 1.108 0 2.205-.036 3.289-.097 47.092-2.831 48.188-41.707 108.424-41.707 28.203 0 60.235 25.022 60.235 83.402-.001 75.065-84.33 133.445-204.801 133.445"/><path d="M385.506-168.8h24.094v-48.188h-24.094v48.188zM0-144.706h24.094v-48.188h-24.094v48.188z"/></g><path d="M349.365-244.789c-27.347 0-39.538 9.096-53.67 19.613-12.878 9.601-27.48 20.468-53.706 22.059-1.433.084-2.867.133-4.337.133-17.264 0-35.876-5.83-55.585-11.999-20.624-6.445-41.936-13.119-61.597-13.119-62.825 0-108.424 35.081-108.424 83.402 0 65.006 99.316 100.075 192.753 100.075 111.689 0 192.753-52.609 192.753-125.109.001-55.068-28.828-75.055-48.187-75.055" fill="#A0041E"/><g fill="#FFE8B6"><path d="M204.8-36.282c-108.424 0-204.8-41.696-204.8-108.424 0-50.043 48.188-91.738 120.471-91.738 41.61 0 85.667 25.118 117.182 25.118 1.108 0 2.205-.036 3.289-.097 47.092-2.831 48.188-41.707 108.424-41.707 28.203 0 60.235 25.022 60.235 83.402-.001 75.065-84.33 133.446-204.801 133.446m0-16.686c104.701 0 180.706-49.104 180.706-116.76 0-49.923-24.829-66.717-36.141-66.717-22.094 0-31.142 6.734-44.851 16.95-13.637 10.167-30.636 22.817-61.488 24.684-1.771.108-3.554.168-5.373.168-19.854 0-39.622-6.192-60.549-12.734-19.456-6.096-39.575-12.385-56.634-12.385-47.899.001-96.376 25.782-96.376 75.054 0 59.587 93.111 91.74 180.706 91.74"/><path d="M182.641-53.666s34.201.699 58.295-15.975c12.047-8.349 4.036-27.106 4.036-27.106l20.058-6.264s-.735 10.072 36.141 16.685c27.118 4.867 54.718-16.685 54.718-16.685s-30.623 41.707-90.859 50.043l-82.389-.698"/></g><path d="M289.129-119.681c0-18.42-21.577-33.37-48.188-33.37s-48.188 14.951-48.188 33.37 21.577 33.358 48.188 33.358c26.612.001 48.188-14.937 48.188-33.358" fill="#E6E7E8"/><path d="M265.035-119.681c0-9.216-10.782-16.685-24.094-16.685-13.3 0-24.094 7.469-24.094 16.685s10.795 16.673 24.094 16.673c13.312.001 24.094-7.457 24.094-16.673" fill="#A7A9AC"/></g></svg>