<svg xmlns="http://www.w3.org/2000/svg" viewBox="0 0 512 512" enable-background="new 0 0 512 512"><path d="M486.93 397.237c-10.012-9.998-54.84-37.845-98.629-62.064 24.121-34.559 38.356-76.514 38.356-121.839 0-117.814-95.515-213.329-213.329-213.329-117.828 0-213.328 95.515-213.328 213.329 0 117.829 95.5 213.329 213.329 213.329 44.913 0 86.555-13.952 120.943-37.673 24.248 43.818 52.138 88.745 62.15 98.757 20.109 20.109 44.458 24.277 58.68 24.248 16.739-.028 57.655-40.974 56.888-56.888-.697-14.209-4.949-37.761-25.06-57.87" fill="#292F33"/><path d="M383.988 213.338c0 94.248-76.415 170.663-170.663 170.663s-170.663-76.415-170.663-170.663 76.415-170.663 170.663-170.663 170.663 76.414 170.663 170.663" fill="#66757F"/><path d="M227.547 355.557c69.161-21.802 56.888-71.11 56.888-127.997s56.902-95.401 4.75-138.664c-30.961-25.685-96.013-34.374-126.234-23.111-27.761 10.339-63.402 31.402-63.402 74.068s-.825 41.642-24.291 79.998c-37.332 61.041 54.513 166.525 152.289 135.706" fill="#F5F8FA"/><path d="M241.769 256.004c0 31.416-25.472 56.888-56.888 56.888s-56.888-25.472-56.888-56.888 25.472-56.888 56.888-56.888 56.888 25.472 56.888 56.888" fill="#FFAC33"/></svg>