<svg xmlns="http://www.w3.org/2000/svg" viewBox="0 0 512 512" enable-background="new 0 0 512 512"><g transform="matrix(1.25 0 0 -1.25 0 45)"><path d="M393.175-79.771c29.399 29.411 15.553 60.051-11.878 87.471-27.42 27.432-58.06 41.278-87.471 11.867-3.643-3.643-6.486-7.845-8.556-12.443-24.504 11.227-51.755 17.494-80.474 17.494-106.824 0-193.418-86.595-193.418-193.418 0-28.717 6.267-55.969 17.494-80.474-4.598-2.07-8.802-4.912-12.448-8.555-29.399-29.411-15.553-60.051 11.878-87.482 27.42-27.42 58.06-41.266 87.471-11.855 3.642 3.642 6.484 7.843 8.554 12.439 24.504-11.226 51.753-17.492 80.469-17.492 106.824 0 193.418 86.595 193.418 193.418 0 28.717-6.266 55.968-17.493 80.473 4.601 2.07 8.806 4.913 12.454 8.557zm-347.021-247.665c-20.164 20.131-30.529 42.599-10.205 64.248 17.461-31.169 43.297-57.004 74.466-74.464-21.639-20.313-44.108-9.949-64.261 10.216zm317.291 317.284c20.166-20.155 30.53-42.614 10.201-64.264-17.459 31.167-43.292 57.001-74.458 74.461 21.638 20.319 44.105 9.955 64.257-10.197z" fill="#292F33"/><path d="M359.527-168.801c0-85.457-69.278-154.735-154.735-154.735s-154.735 69.278-154.735 154.735 69.278 154.735 154.735 154.735 154.735-69.277 154.735-154.735" fill="#FFAC33"/><path d="M221.24-85.346l-28.887 28.887c4.187 5.018 3.982 12.47-.74 17.18-4.994 5.006-13.084 5.006-18.09 0-3.072-3.06-4.232-7.304-3.539-11.275-3.97.705-8.204-.467-11.275-3.539-4.994-4.984-4.994-13.096 0-18.09 4.722-4.722 12.174-4.927 17.192-.74l28.876-28.876 16.463 16.453z" fill="#FFE8B6"/><path d="M314.806-195.377c8.226 8.226 29.024 43.531.239 72.316-20.059 20.059-36.226 18.909-66.309 26.362-12.333 4.119-28.421 18.944-32.528 23.051-4.119-4.108-2.674-19.137-2.674-19.137s-17.92-1.456-22.027-5.563c4.108-4.108 23.21-22.186 26.555-30.663 8.988-28.546 7.964-43.064 28.034-63.111 32.915-32.894 60.494-11.481 68.71-3.255" fill="#C1694F"/><g fill="#77B255"><path d="M106.193-151.734c0-21.993 35.259-39.821 13.277-39.821-21.993 0-39.821 17.828-39.821 39.821s17.828 39.821 39.821 39.821c21.983 0-13.277-17.828-13.277-39.821"/><path d="M205.004-259.71c18.192-8.772 47.058 13.277 38.274-4.927-8.795-18.204-30.685-25.827-48.889-17.055-18.192 8.806-25.839 30.697-17.044 48.889 8.795 18.205 9.455-18.123 27.659-26.907"/></g><g fill="#F4900C"><path d="M193.419-157.423c0-12.56-10.183-22.755-22.755-22.755-12.56 0-22.755 10.195-22.755 22.755 0 12.572 10.195 22.755 22.755 22.755 12.572 0 22.755-10.183 22.755-22.755"/><path d="M284.439-237.066c0-6.292-5.086-11.378-11.378-11.378s-11.378 5.086-11.378 11.378 5.086 11.378 11.378 11.378c6.293 0 11.378-5.086 11.378-11.378"/><path d="M136.531-225.688c0-6.292-5.086-11.378-11.378-11.378s-11.378 5.086-11.378 11.378 5.086 11.378 11.378 11.378 11.378-5.086 11.378-11.378"/></g></g></svg>