<svg xmlns="http://www.w3.org/2000/svg" viewBox="0 0 511.999 511.999" enable-background="new 0 0 511.999 511.999"><g transform="matrix(1.25 0 0 -1.25 0 45)"><path d="M129.626-20.027l-.12-39.916 64.228 16.649-35.267 24.012-28.841-.745z" fill="#FFAC33"/><path d="M387.385-229.274c0 13.67 9.141 24.877 21.021 26.883v140.047c-48.048 11.555-408.406-86.379-408.406-86.379v-42.475c18.786-3.531 33.033-19.964 33.033-39.796 0-19.82-14.247-36.252-33.033-39.783v-92.684l408.406 77.874v29.442c-11.88 2.006-21.021 13.213-21.021 26.871" fill="#FFAC33"/><path d="M175.199 25.861l-46.162-46.162c8.841-2.066 15.111-7.099 15.111-12.985 0-7.748-10.763-14.018-24.024-14.018-5.693 0-10.847 1.201-14.967 3.123l-105.153-105.152c158.161 34.955 264.767 63.483 409.595 86.786-58.389 77.874-195.469 88.408-234.4 88.408" fill="#FFD983"/><g fill="#FFAC33"><path d="M228.227-9.265c0-7.748-10.751-14.018-24.024-14.018-13.261 0-24.024 6.27-24.024 14.018 0 7.735 10.763 14.018 24.024 14.018 13.273 0 24.024-6.282 24.024-14.018"/><path d="M169.028-86.088c0-11.759-16.324-21.273-36.469-21.273-20.132 0-36.469 9.513-36.469 21.273 0 11.735 16.336 21.261 36.469 21.261 20.145 0 36.469-9.525 36.469-21.261"/><path d="M336.334-47.53c0-13.141-18.258-23.796-40.793-23.796-22.522 0-40.793 10.654-40.793 23.796s18.271 23.796 40.793 23.796c22.535-.001 40.793-10.656 40.793-23.796"/></g><g fill="#F4900C"><path d="M391.889-134.828c0-16-11.759-28.961-26.282-28.961-14.498 0-26.27 12.961-26.27 28.961 0 15.988 11.772 28.961 26.27 28.961 14.523 0 26.282-12.973 26.282-28.961"/><path d="M124.624-193.239c0-15.075-11.087-27.291-24.781-27.291-13.681 0-24.768 12.216-24.768 27.291 0 15.087 11.087 27.303 24.768 27.303 13.694.001 24.781-12.215 24.781-27.303"/><path d="M330.704-253.053c-6.042-7.231-16.276-8.649-22.859-3.147-6.57 5.489-6.991 15.832-.925 23.051 6.054 7.267 16.289 8.672 22.859 3.183 6.583-5.501 6.991-15.831.925-23.087"/><path d="M214.38-164.429c-8.132-9.742-21.922-11.652-30.787-4.228-8.829 7.387-9.406 21.285-1.237 31.015 8.168 9.777 21.934 11.675 30.774 4.277 8.853-7.401 9.418-21.287 1.25-31.064"/><path d="M224.86-284.724c-14.414-19.267-40.288-24.264-57.754-11.207-17.477 13.069-19.976 39.315-5.562 58.558 14.414 19.292 40.288 24.3 57.754 11.231 17.478-13.07 19.976-39.303 5.562-58.582"/></g></g></svg>