<svg xmlns="http://www.w3.org/2000/svg" viewBox="0 0 512 512" enable-background="new 0 0 512 512"><path d="M333.432 36.186c-24.846-22.647-51.651-36.186-77.431-36.186-84.706 0-180.706 144.731-180.706 286.118 0 14.683 1.189 28.596 3.028 42.03 15.946 115.832 96.707 183.852 177.679 183.852 90.352 0 180.706-84.495 180.706-225.882-.001-98.35-46.489-198.19-103.275-249.931" fill="#F7DECE"/><path d="M333.432 36.186c43.791 52.991 76.921 135.801 76.921 217.645 0 135.68-85.414 216.756-170.826 216.756-68.383 0-136.659-52.088-161.205-142.441 15.946 115.832 96.707 183.852 177.679 183.852 90.352 0 180.706-84.495 180.706-225.882-.001-98.349-46.489-198.189-103.275-249.93" fill="#E0AA94"/></svg>