<svg xmlns="http://www.w3.org/2000/svg" viewBox="0 0 512 512" enable-background="new 0 0 512 512"><path d="M438.075 373.272c-17.203-11.447-14.603-58.41-43.807-87.615-29.205-29.22-73.012-29.22-102.218-58.425s-29.205-73.012-58.41-102.203c-29.205-29.22-76.167-26.635-87.615-43.807-58.41-87.63-73.012-73.012-73.012-73.012s-31.294 43.807-29.205 73.012c2.089 29.191-43.807 72.999-43.807 72.999 1.724 15.45 14.603 43.807 43.807 58.41 14.369 7.199 35.688 6.482 58.41 29.205 22.736 22.751 40.667 89.119 63.404 111.84 22.723 22.736 74.488 26.065 97.224 48.801 22.736 22.723 16.836 48.144 29.205 58.41 27.409 22.78 43.807 43.807 58.41 43.807 0 0 43.807-14.603 58.425-14.603 41.31 0 102.203-43.807 102.203-43.807s14.603-14.602-73.013-73.012z" fill="#DD2E44"/><path d="M451.995 382.789c-4.33-3.034-8.951-6.196-13.919-9.505-1.883-1.254-3.526-2.933-5.001-4.968-12.015-16.554-12.796-56.64-38.809-82.654-11.707-11.714-25.764-18.729-40.284-24.816-21.699-9.092-44.435-16.109-61.93-33.605-.912-.912-1.797-1.84-2.654-2.781-25.745-28.232-27.386-68.516-53.17-96.73-.836-.915-1.696-1.817-2.585-2.706-4.191-4.191-8.749-7.726-13.513-10.761-27.869-17.748-62.858-18.315-73.48-32.181l-.06-.075-.365-.514-.198-.278-.003-.004c-.82-1.231-1.63-2.435-2.434-3.628l-.726-1.073c-.584-.862-1.163-1.714-1.737-2.554l-.721-1.055c-.745-1.085-1.484-2.159-2.212-3.209l-.213-.306c-.717-1.031-1.425-2.042-2.126-3.04l-.737-1.045c-.512-.726-1.021-1.442-1.526-2.15l-.75-1.051c-.629-.877-1.252-1.741-1.869-2.592l-.515-.71c-.595-.819-1.184-1.624-1.769-2.416l-.791-1.07c-.43-.581-.856-1.154-1.28-1.721l-.801-1.07c-.501-.667-.999-1.323-1.491-1.971l-.891-1.169c-.46-.601-.917-1.198-1.371-1.781l-.86-1.106-1.015-1.295-.879-1.114-1.06-1.329c-.454-.568-.905-1.126-1.351-1.678l-.946-1.163-.924-1.121-.771-.929-.934-1.117-.696-.821c-.583-.686-1.156-1.358-1.724-2.013l-.569-.659-.973-1.109-.55-.62-.978-1.095-.374-.413c-.691-.765-1.371-1.505-2.037-2.221l-.227-.246-1.008-1.069-.357-.376-1.006-1.046-.081-.084c-1.123-1.155-2.206-2.236-3.254-3.25l-.194-.186c-1.415-1.365-2.761-2.605-4.04-3.729l-.073-.065c-6.558-5.75-11.366-8.475-14.795-9.656l-.064-.021c-.488-.166-.946-.301-1.379-.408l-.054-.014-.354-.08-.165-.035-.309-.06-.204-.034-.385-.057-.284-.034-.174-.016-.294-.021-.121-.006-.445-.009c-.242.001-.468.014-.679.034l-.177.019-.431.066-.324.07-.165.043c-.96.273-1.374.684-1.374.684l-6.346 14.806c9.61 3.794 28.95 19.084 64.755 72.802 11.447 17.172 58.41 14.588 87.615 43.807 29.205 29.19 29.205 72.998 58.41 102.203 29.205 29.22 73.012 29.22 102.218 58.425 29.205 29.205 26.605 76.167 43.807 87.615 53.725 35.818 69.011 55.159 72.802 64.765l14.784-6.338.031-.022s.429-.43.699-1.435c1.214-4.535-.86-20.759-59.789-62.051z" fill="#DD2E44"/><path d="M423.473 387.875c-17.203-11.447-14.603-58.41-43.807-87.615-29.205-29.205-73.012-29.205-102.218-58.425-29.205-29.205-29.205-73.012-58.41-102.203-29.205-29.22-76.167-26.635-87.615-43.807-35.806-53.718-55.148-69.01-64.756-72.803-.971-.384-1.841-.65-2.621-.826-2.853 4.819-6.044 10.585-9.041 16.811 10.411 5.593 29.339 22.7 61.815 71.421 11.447 17.172 58.41 14.588 87.615 43.792s29.205 73.012 58.41 102.218c29.205 29.22 73.012 29.22 102.218 58.425s26.605 76.167 43.807 87.615c50.28 33.519 66.891 52.609 71.922 62.794 6.179-3.464 11.744-6.827 16.365-9.739-.174-.846-.455-1.807-.884-2.893-3.789-9.607-19.075-28.95-72.8-64.766z" fill="#F4ABBA"/><path d="M408.87 402.478c-17.203-11.447-14.603-58.41-43.807-87.615s-73.012-29.205-102.218-58.425c-29.205-29.205-29.205-73.012-58.41-102.218s-76.167-26.62-87.615-43.793c-32.475-48.72-51.403-65.829-61.815-71.421-2.935 6.1-5.678 12.639-7.726 19.164 11.203 8.66 28.622 27.38 54.939 66.86 29.205 43.792 58.41 29.19 87.615 58.395s29.205 58.41 58.41 87.63l87.615 58.41s14.603 58.41 58.41 87.615c42.57 28.379 61.006 46.415 68.714 57.461 6.274-3.001 12.289-6.175 17.811-9.271-5.031-10.184-21.644-29.273-71.923-62.792z" fill="#FFE8B6"/><path d="M394.267 417.08c-43.807-29.205-29.205-58.41-58.41-87.615l-87.615-58.41c-29.205-29.22-29.205-58.425-58.41-87.63s-58.41-14.603-87.615-58.395c-26.315-39.479-43.735-58.2-54.939-66.86-2.509 7.987-3.978 15.95-3.469 23.049.369 5.143-.757 10.739-2.855 16.47 8.833 9.499 19.418 22.981 32.058 41.944 11.447 17.172 58.41 14.588 87.615 43.792s29.205 87.615 58.41 116.835c29.205 29.205 73.012 29.205 102.218 58.41 29.205 29.205 41.208 76.167 58.41 87.615 25.619 17.079 41.238 30.407 50.531 40.726 10.922-2.857 22.22-7.414 32.785-12.468-7.708-11.048-26.145-29.084-68.714-57.464z" fill="#EA596E"/><path d="M379.665 446.285c-17.203-11.447-29.205-58.41-58.41-87.615s-73.012-29.205-102.218-58.41c-29.205-29.22-29.205-87.63-58.41-116.835s-76.168-26.62-87.615-43.793c-12.64-18.963-23.225-32.445-32.056-41.945-3.3 9.015-9.01 18.361-15.141 26.797 8.94 10.635 19.7 24.991 32.596 44.337 11.447 17.188 58.41 14.603 87.615 43.807s29.205 73.012 58.41 102.233c29.205 29.205 73.012 29.205 102.218 58.41s26.605 76.167 43.807 87.615c18.576 12.384 32.542 22.793 43.042 31.516 6.199-1.38 11.714-2.301 15.384-2.301 6.701 0 13.92-1.159 21.309-3.093-9.294-10.318-24.913-23.646-50.531-40.725z" fill="#FFE8B6"/><path d="M306.653 373.272c-29.205-29.205-73.012-29.205-102.218-58.41-29.205-29.22-29.205-73.028-58.41-102.233s-76.167-26.62-87.615-43.807c-12.897-19.347-23.656-33.702-32.597-44.337-4.417 6.078-9.049 11.679-13.152 16.344 8.648 10.448 18.938 24.282 31.146 42.596 11.447 17.188 58.41 14.603 87.615 43.807s29.205 73.012 58.41 102.233c29.205 29.205 73.012 29.205 102.218 58.41s26.605 76.167 43.807 87.615c13.175 8.784 24.025 16.571 32.976 23.472 7.738-2.292 16.761-4.799 24.671-6.559-10.5-8.724-24.466-19.133-43.042-31.516-17.204-11.449-14.604-58.41-43.809-87.615z" fill="#EA596E"/><path d="M292.05 387.875c-29.205-29.205-73.012-29.205-102.218-58.41-29.205-29.22-29.205-73.028-58.41-102.233s-76.167-26.62-87.615-43.807c-12.209-18.314-22.499-32.148-31.146-42.596-7.13 8.109-12.657 13.386-12.657 13.386 1.724 15.464 14.603 43.822 43.807 58.425 14.369 7.184 35.688 6.482 58.41 29.205 22.723 22.736 40.667 89.104 63.404 111.84 22.706 22.723 74.488 26.05 97.224 48.788 22.723 22.723 16.836 48.144 29.205 58.41 27.409 22.78 43.792 43.822 58.395 43.822 0 0 8.044-2.68 18.385-5.744-8.95-6.901-19.799-14.689-32.976-23.472-17.203-11.447-14.603-58.409-43.808-87.614z" fill="#DD2E44"/></svg>