<?xml version="1.0" encoding="iso-8859-1"?>
<!-- Generator: Adobe Illustrator 19.0.0, SVG Export Plug-In . SVG Version: 6.00 Build 0)  -->
<svg version="1.1" id="Capa_1" xmlns="http://www.w3.org/2000/svg" xmlns:xlink="http://www.w3.org/1999/xlink" x="0px" y="0px"
	 viewBox="0 0 512 512" style="enable-background:new 0 0 512 512;" xml:space="preserve">
<path style="fill:#292F33;" d="M486.93,397.237c-10.012-9.998-54.84-37.845-98.629-62.064
	c24.121-34.559,38.356-76.514,38.356-121.839c0-117.814-95.515-213.329-213.329-213.329C95.5,0.005,0,95.52,0,213.334
	c0,117.829,95.5,213.329,213.329,213.329c44.913,0,86.555-13.952,120.943-37.673c24.248,43.818,52.138,88.745,62.15,98.757
	c20.109,20.109,44.458,24.277,58.68,24.248c16.739-0.028,57.655-40.974,56.888-56.888
	C511.293,440.898,507.041,417.346,486.93,397.237"/>
<path style="fill:#66757F;" d="M383.988,213.338c0,94.248-76.415,170.663-170.663,170.663S42.662,307.586,42.662,213.338
	S119.077,42.675,213.325,42.675S383.988,119.089,383.988,213.338"/>
<path style="fill:#F5F8FA;" d="M227.547,355.557c69.161-21.802,56.888-71.11,56.888-127.997s56.902-95.401,4.75-138.664
	c-30.961-25.685-96.013-34.374-126.234-23.111c-27.761,10.339-63.402,31.402-63.402,74.068s-0.825,41.642-24.291,79.998
	C37.926,280.892,129.771,386.376,227.547,355.557"/>
<path style="fill:#FFAC33;" d="M241.769,256.004c0,31.416-25.472,56.888-56.888,56.888s-56.888-25.472-56.888-56.888
	s25.472-56.888,56.888-56.888S241.769,224.588,241.769,256.004"/>
<g>
</g>
<g>
</g>
<g>
</g>
<g>
</g>
<g>
</g>
<g>
</g>
<g>
</g>
<g>
</g>
<g>
</g>
<g>
</g>
<g>
</g>
<g>
</g>
<g>
</g>
<g>
</g>
<g>
</g>
</svg>
