<?xml version="1.0" encoding="iso-8859-1"?>
<!-- Generator: Adobe Illustrator 19.0.0, SVG Export Plug-In . SVG Version: 6.00 Build 0)  -->
<svg version="1.1" id="Capa_1" xmlns="http://www.w3.org/2000/svg" xmlns:xlink="http://www.w3.org/1999/xlink" x="0px" y="0px"
	 viewBox="0 0 512 512" style="enable-background:new 0 0 512 512;" xml:space="preserve">
<g transform="matrix(1.25 0 0 -1.25 0 45)">
	<path style="fill:#292F33;" d="M393.175-79.771C422.574-50.36,408.728-19.72,381.297,7.7c-27.42,27.432-58.06,41.278-87.471,11.867
		c-3.643-3.643-6.486-7.845-8.556-12.443c-24.504,11.227-51.755,17.494-80.474,17.494c-106.824,0-193.418-86.595-193.418-193.418
		c0-28.717,6.267-55.969,17.494-80.474c-4.598-2.07-8.802-4.912-12.448-8.555c-29.399-29.411-15.553-60.051,11.878-87.482
		c27.42-27.42,58.06-41.266,87.471-11.855c3.642,3.642,6.484,7.843,8.554,12.439c24.504-11.226,51.753-17.492,80.469-17.492
		c106.824,0,193.418,86.595,193.418,193.418c0,28.717-6.266,55.968-17.493,80.473C385.322-86.258,389.527-83.415,393.175-79.771z
		 M46.154-327.436c-20.164,20.131-30.529,42.599-10.205,64.248c17.461-31.169,43.297-57.004,74.466-74.464
		C88.776-357.965,66.307-347.601,46.154-327.436z M363.445-10.152c20.166-20.155,30.53-42.614,10.201-64.264
		c-17.459,31.167-43.292,57.001-74.458,74.461C320.826,20.364,343.293,10,363.445-10.152z"/>
	<path style="fill:#FFAC33;" d="M359.527-168.801c0-85.457-69.278-154.735-154.735-154.735S50.057-254.258,50.057-168.801
		S119.335-14.066,204.792-14.066S359.527-83.343,359.527-168.801"/>
	<path style="fill:#FFE8B6;" d="M221.24-85.346l-28.887,28.887c4.187,5.018,3.982,12.47-0.74,17.18
		c-4.994,5.006-13.084,5.006-18.09,0c-3.072-3.06-4.232-7.304-3.539-11.275c-3.97,0.705-8.204-0.467-11.275-3.539
		c-4.994-4.984-4.994-13.096,0-18.09c4.722-4.722,12.174-4.927,17.192-0.74l28.876-28.876L221.24-85.346z"/>
	<path style="fill:#C1694F;" d="M314.806-195.377c8.226,8.226,29.024,43.531,0.239,72.316
		c-20.059,20.059-36.226,18.909-66.309,26.362c-12.333,4.119-28.421,18.944-32.528,23.051c-4.119-4.108-2.674-19.137-2.674-19.137
		s-17.92-1.456-22.027-5.563c4.108-4.108,23.21-22.186,26.555-30.663c8.988-28.546,7.964-43.064,28.034-63.111
		C279.011-225.016,306.59-203.603,314.806-195.377"/>
	<g>
		<path style="fill:#77B255;" d="M106.193-151.734c0-21.993,35.259-39.821,13.277-39.821c-21.993,0-39.821,17.828-39.821,39.821
			s17.828,39.821,39.821,39.821C141.453-111.913,106.193-129.741,106.193-151.734"/>
		<path style="fill:#77B255;" d="M205.004-259.71c18.192-8.772,47.058,13.277,38.274-4.927
			c-8.795-18.204-30.685-25.827-48.889-17.055c-18.192,8.806-25.839,30.697-17.044,48.889
			C186.14-214.598,186.8-250.926,205.004-259.71"/>
	</g>
	<g>
		<path style="fill:#F4900C;" d="M193.419-157.423c0-12.56-10.183-22.755-22.755-22.755c-12.56,0-22.755,10.195-22.755,22.755
			c0,12.572,10.195,22.755,22.755,22.755C183.236-134.668,193.419-144.851,193.419-157.423"/>
		<path style="fill:#F4900C;" d="M284.439-237.066c0-6.292-5.086-11.378-11.378-11.378c-6.292,0-11.378,5.086-11.378,11.378
			c0,6.292,5.086,11.378,11.378,11.378C279.354-225.688,284.439-230.774,284.439-237.066"/>
		<path style="fill:#F4900C;" d="M136.531-225.688c0-6.292-5.086-11.378-11.378-11.378c-6.292,0-11.378,5.086-11.378,11.378
			c0,6.292,5.086,11.378,11.378,11.378S136.531-219.396,136.531-225.688"/>
	</g>
</g>
<g>
</g>
<g>
</g>
<g>
</g>
<g>
</g>
<g>
</g>
<g>
</g>
<g>
</g>
<g>
</g>
<g>
</g>
<g>
</g>
<g>
</g>
<g>
</g>
<g>
</g>
<g>
</g>
<g>
</g>
</svg>
